# xmcd CD database file
#
# Track frame offsets:
#	150
#	16715
#	35687
#
# Disc length: 688 seconds
#
# Revision: 3
# Processed by: cddbd v1.4PL0 Copyright (c) Steve Scherf et al.
# Submitted via: CDex 1.40Beta9
#
DISCID=1802ae03
DTITLE=Extreme - Hole hearted
DYEAR=1991
DGENRE=Blues
TTITLE0=Hole hearted
TTITLE1=More than words (a capella)
TTITLE2=Suzi
EXTD=YEAR: 1991 ID3G: 0
EXTT0=
EXTT1=
EXTT2=
PLAYORDER=
